<svg width="102" height="41" viewBox="0 0 102 41" fill="none" xmlns="http://www.w3.org/2000/svg">
<circle cx="99" cy="28" r="3" fill="#00CEA5"/>
<path d="M4.47 30.27C3.71 30.27 3.13 30.06 2.73 29.64C2.33 29.22 2.13 28.63 2.13 27.87V10.95C2.13 10.19 2.33 9.61 2.73 9.21C3.13 8.79 3.71 8.58 4.47 8.58C5.21 8.58 5.78 8.79 6.18 9.21C6.58 9.61 6.78 10.19 6.78 10.95V18.06H6.84L14.82 9.72C15.16 9.36 15.51 9.09 15.87 8.91C16.25 8.71 16.68 8.61 17.16 8.61C17.86 8.61 18.36 8.79 18.66 9.15C18.98 9.51 19.12 9.93 19.08 10.41C19.04 10.89 18.82 11.34 18.42 11.76L10.41 19.95L10.44 17.94L18.84 26.91C19.3 27.41 19.53 27.92 19.53 28.44C19.55 28.96 19.38 29.4 19.02 29.76C18.68 30.1 18.17 30.27 17.49 30.27C16.91 30.27 16.44 30.15 16.08 29.91C15.74 29.67 15.36 29.32 14.94 28.86L6.84 20.34H6.78V27.87C6.78 28.63 6.58 29.22 6.18 29.64C5.8 30.06 5.23 30.27 4.47 30.27ZM49.0913 30C48.3113 30 47.7113 29.79 47.2913 29.37C46.8713 28.95 46.6613 28.35 46.6613 27.57V11.28C46.6613 10.5 46.8713 9.9 47.2913 9.48C47.7113 9.06 48.3113 8.85 49.0913 8.85H54.9413C58.5612 8.85 61.3513 9.77 63.3113 11.61C65.2913 13.43 66.2813 16.03 66.2813 19.41C66.2813 21.11 66.0213 22.62 65.5013 23.94C65.0013 25.24 64.2713 26.34 63.3113 27.24C62.3513 28.14 61.1713 28.83 59.7713 29.31C58.3713 29.77 56.7613 30 54.9413 30H49.0913ZM51.3113 26.19H54.6713C55.8113 26.19 56.8013 26.05 57.6413 25.77C58.4813 25.49 59.1813 25.07 59.7413 24.51C60.3013 23.95 60.7213 23.25 61.0013 22.41C61.2813 21.55 61.4213 20.55 61.4213 19.41C61.4213 17.13 60.8513 15.44 59.7113 14.34C58.5913 13.22 56.9113 12.66 54.6713 12.66H51.3113V26.19ZM72.2337 30.27C71.4737 30.27 70.8937 30.06 70.4937 29.64C70.0937 29.22 69.8937 28.63 69.8937 27.87V10.98C69.8937 10.22 70.0937 9.63 70.4937 9.21C70.8937 8.79 71.4737 8.58 72.2337 8.58C72.9737 8.58 73.5437 8.79 73.9437 9.21C74.3437 9.63 74.5437 10.22 74.5437 10.98V27.87C74.5437 28.63 74.3437 29.22 73.9437 29.64C73.5637 30.06 72.9937 30.27 72.2337 30.27ZM78.3799 30.24C77.6999 30.26 77.1699 30.08 76.7899 29.7C76.4099 29.32 76.2199 28.83 76.2199 28.23C76.2199 27.77 76.3599 27.37 76.6399 27.03C76.8999 26.67 77.2899 26.48 77.8099 26.46L78.6799 26.4C79.4799 26.34 80.0799 26.11 80.4799 25.71C80.8799 25.31 81.0799 24.7 81.0799 23.88V10.95C81.0799 10.19 81.2799 9.61 81.6799 9.21C82.0799 8.79 82.6499 8.58 83.3899 8.58C84.1499 8.58 84.7299 8.79 85.1299 9.21C85.5299 9.61 85.7299 10.19 85.7299 10.95V23.82C85.7299 25.14 85.4899 26.26 85.0099 27.18C84.5499 28.08 83.8499 28.78 82.9099 29.28C81.9699 29.78 80.8099 30.08 79.4299 30.18L78.3799 30.24ZM92.302 30.27C91.542 30.27 90.962 30.06 90.562 29.64C90.162 29.22 89.962 28.63 89.962 27.87V10.98C89.962 10.22 90.162 9.63 90.562 9.21C90.962 8.79 91.542 8.58 92.302 8.58C93.042 8.58 93.612 8.79 94.012 9.21C94.412 9.63 94.612 10.22 94.612 10.98V27.87C94.612 28.63 94.412 29.22 94.012 29.64C93.632 30.06 93.062 30.27 92.302 30.27Z" fill="white"/>
<path d="M32.5943 30.33C30.5143 30.33 28.6843 29.88 27.1043 28.98C25.5443 28.06 24.3243 26.78 23.4443 25.14C22.5843 23.5 22.1543 21.59 22.1543 19.41C22.1543 17.75 22.3943 16.26 22.8743 14.94C23.3743 13.6 24.0843 12.46 25.0043 11.52C25.9243 10.56 27.0243 9.82 28.3043 9.3C29.6043 8.78 31.0343 8.52 32.5943 8.52C34.7143 8.52 36.5543 8.97 38.1143 9.87C39.6743 10.77 40.8843 12.04 41.7443 13.68C42.6243 15.3 43.0643 17.2 43.0643 19.38C43.0643 21.04 42.8143 22.54 42.3143 23.88C41.8143 25.22 41.1043 26.37 40.1843 27.33C39.2643 28.29 38.1643 29.03 36.8843 29.55C35.6043 30.07 34.1743 30.33 32.5943 30.33ZM32.5943 26.37C33.7743 26.37 34.7743 26.1 35.5943 25.56C36.4343 25 37.0743 24.2 37.5143 23.16C37.9743 22.1 38.2043 20.85 38.2043 19.41C38.2043 17.21 37.7143 15.51 36.7343 14.31C35.7543 13.09 34.3743 12.48 32.5943 12.48C31.4343 12.48 30.4343 12.75 29.5943 13.29C28.7543 13.83 28.1143 14.62 27.6743 15.66C27.2343 16.7 27.0143 17.95 27.0143 19.41C27.0143 21.59 27.5043 23.3 28.4843 24.54C29.4643 25.76 30.8343 26.37 32.5943 26.37Z" fill="#00CEA5"/>
</svg>
