<svg width="46" height="46" viewBox="0 0 46 46" fill="none" xmlns="http://www.w3.org/2000/svg">
<circle cx="23" cy="23" r="15" fill="white"/>
<path d="M23 4C12.512 4 4 12.512 4 23C4 33.488 12.512 42 23 42C33.488 42 42 33.488 42 23C42 12.512 33.488 4 23 4ZM31.816 16.92C31.531 19.922 30.296 27.218 29.669 30.581C29.403 32.006 28.871 32.481 28.377 32.538C27.275 32.633 26.439 31.816 25.375 31.113C23.703 30.011 22.753 29.327 21.138 28.263C19.257 27.028 20.473 26.344 21.556 25.242C21.841 24.957 26.705 20.53 26.8 20.131C26.8132 20.0706 26.8114 20.0078 26.7949 19.9482C26.7783 19.8886 26.7475 19.834 26.705 19.789C26.591 19.694 26.439 19.732 26.306 19.751C26.135 19.789 23.475 21.556 18.288 25.052C17.528 25.565 16.844 25.831 16.236 25.812C15.552 25.793 14.26 25.432 13.291 25.109C12.094 24.729 11.163 24.52 11.239 23.855C11.277 23.513 11.752 23.171 12.645 22.81C18.193 20.397 21.879 18.801 23.722 18.041C29.004 15.837 30.087 15.457 30.809 15.457C30.961 15.457 31.322 15.495 31.55 15.685C31.74 15.837 31.797 16.046 31.816 16.198C31.797 16.312 31.835 16.654 31.816 16.92Z" fill="#6367EF"/>
</svg>
