<svg width="50" height="50" viewBox="0 0 50 50" fill="none" xmlns="http://www.w3.org/2000/svg">
<rect width="50" height="50" fill="white" fill-opacity="0.01"/>
<path fill-rule="evenodd" clip-rule="evenodd" d="M30.7096 12.2938C30.6167 12.2007 30.5064 12.1268 30.3849 12.0764C30.2634 12.0259 30.1332 12 30.0016 12C29.8701 12 29.7399 12.0259 29.6184 12.0764C29.4969 12.1268 29.3865 12.2007 29.2936 12.2938L17.2936 24.2938C17.2005 24.3867 17.1266 24.497 17.0762 24.6185C17.0258 24.74 16.9998 24.8703 16.9998 25.0018C16.9998 25.1333 17.0258 25.2636 17.0762 25.3851C17.1266 25.5065 17.2005 25.6169 17.2936 25.7098L29.2936 37.7098C29.4814 37.8976 29.7361 38.003 30.0016 38.003C30.2672 38.003 30.5219 37.8976 30.7096 37.7098C30.8974 37.522 31.0029 37.2673 31.0029 37.0018C31.0029 36.7362 30.8974 36.4816 30.7096 36.2938L19.4156 25.0018L30.7096 13.7098C30.8028 13.6169 30.8766 13.5065 30.9271 13.3851C30.9775 13.2636 31.0034 13.1333 31.0034 13.0018C31.0034 12.8703 30.9775 12.74 30.9271 12.6185C30.8766 12.497 30.8028 12.3867 30.7096 12.2938Z" fill="white"/>
</svg>
