<svg width="50" height="50" viewBox="0 0 50 50" fill="none" xmlns="http://www.w3.org/2000/svg">
<rect width="50" height="50" fill="white" fill-opacity="0.01"/>
<path fill-rule="evenodd" clip-rule="evenodd" d="M19.2938 12.2938C19.3867 12.2007 19.497 12.1268 19.6185 12.0764C19.74 12.0259 19.8703 12 20.0018 12C20.1333 12 20.2636 12.0259 20.3851 12.0764C20.5065 12.1268 20.6169 12.2007 20.7098 12.2938L32.7098 24.2938C32.8029 24.3867 32.8768 24.497 32.9272 24.6185C32.9776 24.74 33.0036 24.8703 33.0036 25.0018C33.0036 25.1333 32.9776 25.2636 32.9272 25.3851C32.8768 25.5065 32.8029 25.6169 32.7098 25.7098L20.7098 37.7098C20.522 37.8976 20.2673 38.003 20.0018 38.003C19.7362 38.003 19.4816 37.8976 19.2938 37.7098C19.106 37.522 19.0005 37.2673 19.0005 37.0018C19.0005 36.7362 19.106 36.4816 19.2938 36.2938L30.5878 25.0018L19.2938 13.7098C19.2007 13.6169 19.1268 13.5065 19.0764 13.3851C19.0259 13.2636 19 13.1333 19 13.0018C19 12.8703 19.0259 12.74 19.0764 12.6185C19.1268 12.497 19.2007 12.3867 19.2938 12.2938Z" fill="white"/>
</svg>
