<svg width="32" height="32" viewBox="0 0 32 32" fill="none" xmlns="http://www.w3.org/2000/svg">
<circle cx="16" cy="16" r="15" fill="white"/>
<path d="M16 1C13.0333 1 10.1332 1.87973 7.66645 3.52796C5.19972 5.17618 3.27713 7.51886 2.14181 10.2597C1.0065 13.0006 0.709449 16.0166 1.28823 18.9264C1.86701 21.8361 3.29562 24.5088 5.39341 26.6066C7.49119 28.7044 10.1639 30.133 13.0737 30.7118C15.9834 31.2906 18.9994 30.9935 21.7403 29.8582C24.4812 28.7229 26.8238 26.8003 28.4721 24.3336C30.1203 21.8668 31 18.9667 31 16C31 12.0218 29.4197 8.20644 26.6066 5.3934C23.7936 2.58035 19.9783 1 16 1ZM16.643 10.214C18.0065 10.2156 19.3138 10.7579 20.2779 11.7221C21.2421 12.6863 21.7844 13.9935 21.786 15.357H20.5C20.499 14.3344 20.0922 13.354 19.3692 12.6309C18.6461 11.9078 17.6656 11.5011 16.643 11.5V10.214ZM20.808 25C20.769 25 16.908 24.934 11.943 20.057C7.06601 15.094 7.00001 11.231 7.00001 11.192C7.00001 10.711 10 7 10.663 7C10.893 7 11.072 7.156 11.268 7.39C11.74 7.952 13.827 11.246 13.731 11.795C13.685 12.053 13.466 12.249 12.838 12.776C12.5286 13.0193 12.239 13.2868 11.972 13.576C12.0999 14.1052 12.2899 14.6174 12.538 15.102C13.4625 17.0029 14.9986 18.5383 16.9 19.462C17.3846 19.7102 17.8968 19.9001 18.426 20.028C18.7152 19.761 18.9827 19.4714 19.226 19.162C19.753 18.534 19.949 18.315 20.207 18.269C20.756 18.169 24.05 20.26 24.612 20.732C24.846 20.932 25.002 21.107 25.002 21.337C25 22 21.289 25 20.808 25ZM23.714 15.357C23.7119 13.4823 22.9662 11.685 21.6406 10.3594C20.315 9.03378 18.5177 8.28812 16.643 8.286V7C18.8586 7.00265 20.9827 7.88396 22.5494 9.45063C24.116 11.0173 24.9974 13.1414 25 15.357H23.714Z" fill="#00CEA5"/>
</svg>
